HIERARCHY
ROOT Hips
{
    OFFSET 0.000000 0.000000 0.000000
    CHANNELS 6 Xposition Yposition Zposition Zrotation Xrotation Yrotation
    JOINT Spine
    {
        OFFSET -0.000000 14.517291 0.000000
        CHANNELS 3 Zrotation Xrotation Yrotation
        JOINT Spine1
        {
            OFFSET -0.000000 37.558300 0.000000
            CHANNELS 3 Zrotation Xrotation Yrotation
            JOINT Neck
            {
                OFFSET -0.000000 37.404057 3.400369
                CHANNELS 3 Zrotation Xrotation Yrotation
                JOINT Head
                {
                    OFFSET -0.000000 24.785618 -3.540803
                    CHANNELS 3 Zrotation Xrotation Yrotation
                    End Site
                    {
                        OFFSET -0.000000 35.408028 0.000000
                    }
                }
            }
            JOINT LeftShoulder
            {
                OFFSET 6.992933 33.973492 -0.192664
                CHANNELS 3 Zrotation Xrotation Yrotation
                JOINT LeftArm
                {
                    OFFSET 21.527611 0.000000 0.000000
                    CHANNELS 3 Zrotation Xrotation Yrotation
                    JOINT LeftForeArm
                    {
                        OFFSET 56.353916 0.000000 0.000000
                        CHANNELS 3 Zrotation Xrotation Yrotation
                        JOINT LeftHand
                        {
                            OFFSET 47.774071 0.000000 0.000000
                            CHANNELS 3 Zrotation Xrotation Yrotation
                            End Site
                            {
                                OFFSET 26.556021 0.000000 0.000000
                            }
                        }
                    }
                }
            }
            JOINT RightShoulder
            {
                OFFSET -7.065357 33.973492 -0.192664
                CHANNELS 3 Zrotation Xrotation Yrotation
                JOINT RightArm
                {
                    OFFSET -21.527611 0.000000 0.000000
                    CHANNELS 3 Zrotation Xrotation Yrotation
                    JOINT RightForeArm
                    {
                        OFFSET -56.353916 0.000000 0.000000
                        CHANNELS 3 Zrotation Xrotation Yrotation
                        JOINT RightHand
                        {
                            OFFSET -47.774071 0.000000 0.000000
                            CHANNELS 3 Zrotation Xrotation Yrotation
                            End Site
                            {
                                OFFSET -26.556021 0.000000 0.000000
                            }
                        }
                    }
                }
            }
        }
    }
    JOINT LeftUpLeg
    {
        OFFSET 17.704014 0.000000 0.000000
        CHANNELS 3 Zrotation Xrotation Yrotation
        JOINT LeftLeg
        {
            OFFSET -0.000000 -81.181816 0.000000
            CHANNELS 3 Zrotation Xrotation Yrotation
            JOINT LeftFoot
            {
                OFFSET -0.000000 -62.821102 0.000000
                CHANNELS 3 Zrotation Xrotation Yrotation
                JOINT LeftToeBase
                {
                    OFFSET -0.000000 -11.507608 26.556021
                    CHANNELS 3 Zrotation Xrotation Yrotation
                    End Site
                    {
                        OFFSET -0.000000 0.000000 7.081605
                    }
                }
            }
        }
    }
    JOINT RightUpLeg
    {
        OFFSET -17.704014 0.000000 0.000000
        CHANNELS 3 Zrotation Xrotation Yrotation
        JOINT RightLeg
        {
            OFFSET -0.000000 -81.181816 0.000000
            CHANNELS 3 Zrotation Xrotation Yrotation
            JOINT RightFoot
            {
                OFFSET -0.000000 -62.821102 0.000000
                CHANNELS 3 Zrotation Xrotation Yrotation
                JOINT RightToeBase
                {
                    OFFSET -0.000000 -11.507608 26.556021
                    CHANNELS 3 Zrotation Xrotation Yrotation
                    End Site
                    {
                        OFFSET -0.000000 0.000000 7.081605
                    }
                }
            }
        }
    }
}
MOTION
Frames:    8
Frame Time:    0.008333
-5.287365    155.587189    -18.351021    -2.063215    -2.097776    -26.050850    3.903467    -0.065228    2.485949    -2.025483    2.917662    0.878426    13.774531    5.286291    11.013425    -6.516511    -0.751851    9.098506    -0.837619    9.115442    -10.590214    -37.886662    10.516746    -37.356113    32.824959    -43.952499    -46.452576    -20.970661    -27.369961    -31.533566    -4.041969    6.963533    -3.168517    37.399429    11.431481    71.482407    3.250237    -12.115734    96.073509    9.050278    -14.202968    18.479221    17.925884    -19.177948    -0.782283    -10.213908    11.541367    -4.641927    -8.592071    -3.564109    44.848133    0.000000    0.000000    0.000000    -4.941516    -1.245191    -9.718470    8.132792    34.826881    -3.975211    -4.875995    -26.661688    -18.422991    0.000000    0.000000    0.000000    
-5.168333    155.595276    -18.128439    -2.055987    -2.103717    -26.190464    3.913049    -0.060451    2.539831    -2.025689    2.928009    0.896579    13.802755    5.303552    11.055961    -6.535599    -0.733610    9.140328    -0.842058    9.099309    -10.576124    -37.969639    10.437099    -37.302078    32.660160    -43.894241    -46.580116    -20.771942    -27.388454    -31.481058    -4.046560    6.992250    -3.161292    37.418663    11.414412    71.495903    3.259531    -12.055181    96.059189    9.052519    -14.154018    18.448467    17.930019    -19.148676    -0.525969    -10.168961    11.717863    -4.792372    -8.768476    -3.479598    44.884789    0.000000    0.000000    0.000000    -5.036203    -1.174525    -9.730802    8.069615    34.760612    -3.897933    -4.782125    -26.663301    -18.320791    0.000000    0.000000    0.000000    
-5.046402    155.609100    -17.902132    -2.051343    -2.090476    -26.338106    3.914886    -0.059205    2.583706    -1.959593    2.917301    0.909356    13.745257    5.254623    11.092450    -6.494681    -0.631173    9.189962    -0.908817    9.096066    -10.518714    -37.951687    10.544997    -37.269562    32.770546    -43.973335    -46.497017    -20.686941    -27.489799    -31.467869    -4.118246    7.033611    -3.138398    37.420200    11.425322    71.520081    3.253151    -12.047830    96.064026    9.038271    -14.143058    18.439556    17.956026    -19.120472    -0.273579    -10.226454    11.819496    -4.702213    -8.828851    -3.320233    44.913212    0.000000    0.000000    0.000000    -5.130678    -1.117432    -9.740583    8.033638    34.682877    -3.851817    -4.704632    -26.643158    -18.202934    0.000000    0.000000    0.000000    
-4.931199    155.619202    -17.676434    -2.048274    -2.091694    -26.481243    3.926578    -0.044479    2.635760    -1.972383    2.917947    0.927221    13.787458    5.277827    11.102636    -6.530171    -0.636926    9.193618    -0.886671    9.106515    -10.503215    -38.014614    10.482431    -37.226734    32.669468    -43.996376    -46.586193    -20.739586    -27.531717    -31.396378    -4.084496    7.016804    -3.126446    37.363441    11.458228    71.492058    3.252153    -12.070324    96.082825    9.037024    -14.166295    18.432076    17.980700    -19.076590    0.005846    -10.281728    11.925408    -4.700730    -8.806343    -3.130437    44.962715    0.000000    0.000000    0.000000    -5.235243    -1.038534    -9.746289    8.019652    34.597893    -3.838027    -4.609361    -26.633888    -18.058359    0.000000    0.000000    0.000000    
-4.818679    155.629745    -17.461243    -2.038818    -2.062161    -26.613636    3.918010    -0.059027    2.655511    -1.915224    2.903620    0.931909    13.767950    5.358192    11.125793    -6.567357    -0.703808    9.220594    -0.947332    9.088268    -10.466787    -38.082020    10.394854    -37.117073    32.572205    -43.917942    -46.700542    -20.774639    -27.436260    -31.368290    -4.127684    7.025303    -3.089034    37.389217    11.469934    71.488533    3.280896    -12.019349    96.074776    9.048760    -14.143723    18.438429    18.008282    -19.078579    0.343530    -10.316741    12.077329    -4.755260    -8.748536    -2.919677    44.967163    0.000000    0.000000    0.000000    -5.328461    -0.996052    -9.799139    7.966465    34.524235    -3.787755    -4.493524    -26.620964    -17.889530    0.000000    0.000000    0.000000    
-4.698649    155.643387    -17.239288    -2.022172    -2.033728    -26.733784    3.928020    -0.082880    2.681444    -1.905525    2.900827    0.940044    13.789215    5.331211    11.162588    -6.584075    -0.636980    9.254749    -0.972056    9.078526    -10.432693    -38.098179    10.423664    -37.060764    32.511822    -43.969597    -46.789993    -20.635668    -27.548626    -31.280811    -4.144877    7.019237    -3.064465    37.413109    11.480227    71.457985    3.313810    -11.973966    96.074585    9.044293    -14.134140    18.448475    18.013170    -19.091894    0.599664    -10.353862    12.199743    -4.741333    -8.814475    -2.833004    45.147282    0.000000    0.000000    0.000000    -5.438792    -0.947164    -9.847833    7.942009    34.438622    -3.735871    -4.400702    -26.600574    -17.744499    0.000000    0.000000    0.000000    
-4.579575    155.662186    -17.009008    -2.001547    -2.026608    -26.849293    3.939713    -0.087500    2.705788    -1.947588    2.904898    0.949174    13.866118    5.336825    11.194497    -6.645011    -0.629024    9.272388    -0.953255    9.047647    -10.438335    -38.177162    10.333323    -36.972256    32.275246    -44.001904    -46.995708    -20.636292    -27.634848    -31.221462    -4.094197    7.012823    -3.055855    37.399265    11.478590    71.429985    3.346723    -11.935988    96.087982    9.030810    -14.134568    18.452425    18.000330    -19.093124    0.881240    -10.380114    12.354398    -4.793546    -8.821687    -2.647088    45.207371    0.000000    0.000000    0.000000    -5.565321    -0.877101    -9.912362    7.918480    34.350285    -3.673992    -4.290862    -26.573318    -17.599197    0.000000    0.000000    0.000000    
-4.464281    155.671875    -16.800949    -1.979551    -2.007367    -26.960348    3.908513    -0.084874    2.720824    -1.901135    2.874569    0.952604    13.866974    5.411269    11.214829    -6.684420    -0.694805    9.293338    -0.975020    9.066161    -10.420990    -38.233677    10.265096    -36.920979    32.262867    -43.962303    -47.019199    -20.694220    -27.562874    -31.257511    -4.104601    7.056701    -3.035338    37.346191    11.487021    71.442024    3.315525    -11.996492    96.089149    9.037060    -14.159714    18.452873    18.004969    -19.109541    1.077999    -10.441724    12.485109    -4.817142    -8.759123    -2.389990    45.273235    0.000000    0.000000    0.000000    -5.673757    -0.836303    -9.947392    7.882900    34.284687    -3.644957    -4.179356    -26.560167    -17.451134    0.000000    0.000000    0.000000    
